<?xml version="1.0" encoding="utf-8"?>
<!-- Generator: Adobe Illustrator 27.9.0, SVG Export Plug-In . SVG Version: 6.00 Build 0)  -->
<svg version="1.1" id="Capa_1" xmlns="http://www.w3.org/2000/svg" xmlns:xlink="http://www.w3.org/1999/xlink" x="0px" y="0px"
	 viewBox="0 0 3807.4 1187.5" style="enable-background:new 0 0 3807.4 1187.5;" xml:space="preserve">
<style type="text/css">
	.st0{fill:#FFFFFF;}
	.st1{fill:#00D2AA;}
	.st2{fill:#004141;}
</style>
<g>
	<g>
		<g>
			<path class="st0" d="M604.8,438.2c69.7,0,126.2,48.7,140.6,116.2h146.1c-7.7-69.7-37.6-128.4-91.9-173.8
				c-54.2-45.4-119.5-67.5-195.9-67.5c-85.2,0-156.1,26.6-211.4,79.7c-56.4,54.2-84.1,121.7-84.1,204.8c0,83,27.7,150.5,84.1,203.7
				c55.3,53.1,126.2,79.7,211.4,79.7c76.4,0,141.7-22.1,195.9-67.5c54.2-45.4,84.1-102.9,91.9-172.7h-145
				c-14.4,67.5-71.9,115.1-141.7,115.1c-85.2,0-148.3-66.4-148.3-158.3C456.4,504.6,517.3,438.2,604.8,438.2z"/>
			<path class="st0" d="M1697.2,446V324.2h-143.9V871h143.9V607.6c0-97.4,77.5-157.2,198.1-157.2V306.5
				C1805.7,306.5,1736,357.4,1697.2,446z"/>
			<path class="st0" d="M2197.3,313.2c-85.2,0-156.1,26.6-211.4,79.7c-56.4,54.2-84.1,121.7-84.1,204.8c0,83,27.7,150.5,84.1,203.7
				c55.3,53.1,126.2,79.7,211.4,79.7c67.5,0,128.4-18.8,181.5-57.6c53.1-38.7,87.4-87.4,102.9-147.2h-145
				c-21,49.8-75.3,87.4-138.4,87.4c-75.3,0-135-49.8-152.7-121.7h441.6c3.3-12.2,4.4-26.6,4.4-43.2c-1.1-83-28.8-151.6-84.1-205.9
				C2352.2,339.7,2282.5,313.2,2197.3,313.2z M2051.2,532.3c23.2-62,79.7-101.8,147.2-101.8c69.7,0,130.6,41,152.7,101.8H2051.2z"/>
			<path class="st0" d="M2958,320.9h-97.8L2601,685.8v60.4h275.1V871h81.9V746.2h97v-68.4h-97V320.9z M2876.1,677.9h-192.4
				l193.2-265.5L2876.1,677.9z"/>
			<path class="st0" d="M3198.8,802.7c0.8-9.5,2.4-18.3,5.6-27c6.4-16.7,27.8-36.6,37.4-46.1c4.8-4.8,15.1-11.9,30.2-21.5
				c15.1-9.5,24.6-15.9,28.6-18.3c4-2.4,15.9-9.5,34.2-19.9c46.9-27.8,70.8-44.5,105.7-77.1c34.2-32.6,50.9-72.3,50.9-119.2
				c0-46.9-17.5-85.1-51.7-115.3c-34.2-29.4-78.7-44.5-132-44.5c-54.1,0-98.6,15.1-133.6,46.1c-35,31-54.1,73.1-56.4,126.4h78.7
				c4-66,49.3-104.1,109.7-104.1c61.2,0,104.1,39,104.1,95.4c0,61.2-47.7,103.3-135.9,155c-20.7,11.9-36.6,21.5-46.9,28.6
				c-10.3,7.2-24.6,17.5-42.9,32.6c-18.3,15.1-31.8,30.2-40.5,43.7c-19.1,28.6-36.6,74.7-36.6,125.6v8h391.9v-68.4H3198.8z"/>
			<path class="st0" d="M1188.5,312.7V440c85.4,0,153,69.2,153,154.6c0,85.4-67.6,154.6-153,154.6V880
				c162.1,0,293.5-127,293.5-283.7C1482,439.7,1350.6,312.7,1188.5,312.7z"/>
		</g>
		<g>
			<g>
				<g>
					<g>
						<path class="st1" d="M1188.5,749.1c-84.5,0-153-69.2-153-154.6c0-85.4,68.5-154.6,153-154.6V749.1z"/>
					</g>
				</g>
			</g>
		</g>
	</g>
</g>
</svg>
